<?xml version="1.0" encoding="UTF-8"?>
<!DOCTYPE svg PUBLIC "-//W3C//DTD SVG 1.1//EN" "http://www.w3.org/Graphics/SVG/1.1/DTD/svg11.dtd">
<svg xmlns="http://www.w3.org/2000/svg" version="1.1" width="500px" height="500px" style="shape-rendering:geometricPrecision; text-rendering:geometricPrecision; image-rendering:optimizeQuality; fill-rule:evenodd; clip-rule:evenodd" xmlns:xlink="http://www.w3.org/1999/xlink">
<g><path style="opacity:1" fill="#fefefe" d="M -0.5,-0.5 C 166.167,-0.5 332.833,-0.5 499.5,-0.5C 499.5,166.167 499.5,332.833 499.5,499.5C 332.833,499.5 166.167,499.5 -0.5,499.5C -0.5,332.833 -0.5,166.167 -0.5,-0.5 Z"/></g>
<g><path style="opacity:1" fill="#d86ec5" d="M 203.5,191.5 C 210.5,191.5 217.5,191.5 224.5,191.5C 225.087,197.303 224.42,202.803 222.5,208C 223.082,210.206 223.415,212.706 223.5,215.5C 222.165,222.844 220.832,230.177 219.5,237.5C 219.5,252.833 219.5,268.167 219.5,283.5C 217.833,283.5 216.167,283.5 214.5,283.5C 214.167,264.833 213.833,246.167 213.5,227.5C 215.048,227.179 215.715,226.179 215.5,224.5C 211.833,224.5 208.167,224.5 204.5,224.5C 204.723,221.216 205.39,218.049 206.5,215C 210.871,214.828 215.204,214.328 219.5,213.5C 214.208,212.505 208.875,212.172 203.5,212.5C 203.5,205.5 203.5,198.5 203.5,191.5 Z"/></g>
<g><path style="opacity:1" fill="#cd6fc8" d="M 224.5,191.5 C 226.167,191.5 227.833,191.5 229.5,191.5C 229.407,203.72 229.741,216.054 230.5,228.5C 230.5,230.833 230.5,233.167 230.5,235.5C 229.596,251.619 229.596,267.619 230.5,283.5C 226.833,283.5 223.167,283.5 219.5,283.5C 219.5,268.167 219.5,252.833 219.5,237.5C 221.194,239.438 223.194,239.771 225.5,238.5C 223.728,237.73 222.728,236.397 222.5,234.5C 224.59,226.571 226.256,218.571 227.5,210.5C 226.5,210.5 225.5,210.5 224.5,210.5C 224.784,212.415 224.451,214.081 223.5,215.5C 223.415,212.706 223.082,210.206 222.5,208C 224.42,202.803 225.087,197.303 224.5,191.5 Z"/></g>
<g><path style="opacity:1" fill="#c06fcb" d="M 229.5,191.5 C 232.833,191.5 236.167,191.5 239.5,191.5C 240.833,200.5 240.833,209.5 239.5,218.5C 235.049,220.614 232.049,223.947 230.5,228.5C 229.741,216.054 229.407,203.72 229.5,191.5 Z"/></g>
<g><path style="opacity:1" fill="#ad70d1" d="M 239.5,191.5 C 246.833,191.5 254.167,191.5 261.5,191.5C 261.264,199.715 261.264,207.882 261.5,216C 260.619,216.708 259.953,217.542 259.5,218.5C 257.575,225.178 255.908,232.012 254.5,239C 255.448,239.483 256.448,239.649 257.5,239.5C 256.727,254.326 256.727,268.993 257.5,283.5C 253.5,283.5 249.5,283.5 245.5,283.5C 246.404,268.952 246.404,254.285 245.5,239.5C 246.931,239.119 247.764,238.119 248,236.5C 249.616,230.919 250.783,225.252 251.5,219.5C 249.876,219.36 248.71,220.027 248,221.5C 245.695,219.07 242.862,218.07 239.5,218.5C 240.833,209.5 240.833,200.5 239.5,191.5 Z"/></g>
<g><path style="opacity:1" fill="#9372d8" d="M 261.5,191.5 C 268.167,191.5 274.833,191.5 281.5,191.5C 281.39,200.407 281.723,209.407 282.5,218.5C 278.727,217.822 275.894,219.156 274,222.5C 270.432,217.59 266.432,217.257 262,221.5C 261.764,219.881 260.931,218.881 259.5,218.5C 259.953,217.542 260.619,216.708 261.5,216C 261.264,207.882 261.264,199.715 261.5,191.5 Z"/></g>
<g><path style="opacity:1" fill="#8273dc" d="M 281.5,191.5 C 285.167,191.5 288.833,191.5 292.5,191.5C 292.173,201.681 292.506,211.681 293.5,221.5C 291.972,227.426 290.639,233.426 289.5,239.5C 290.5,239.5 291.5,239.5 292.5,239.5C 292.5,254.167 292.5,268.833 292.5,283.5C 288.833,283.5 285.167,283.5 281.5,283.5C 281.645,268.957 281.312,254.29 280.5,239.5C 281.5,239.5 282.5,239.5 283.5,239.5C 283.853,234.049 284.853,228.715 286.5,223.5C 285.905,221.239 284.571,219.572 282.5,218.5C 281.723,209.407 281.39,200.407 281.5,191.5 Z"/></g>
<g><path style="opacity:1" fill="#5e76e7" d="M 307.5,191.5 C 314.167,191.5 320.833,191.5 327.5,191.5C 327.494,201.339 327.828,211.006 328.5,220.5C 323.707,226.713 323.374,233.047 327.5,239.5C 327.833,254.167 328.167,268.833 328.5,283.5C 321.5,283.5 314.5,283.5 307.5,283.5C 307.5,263.833 307.5,244.167 307.5,224.5C 309.675,221.438 312.509,220.772 316,222.5C 315.945,228.112 315.111,233.612 313.5,239C 315.108,239.658 316.275,239.158 317,237.5C 317.94,233.515 318.773,229.515 319.5,225.5C 319.983,220.986 317.983,218.652 313.5,218.5C 311.407,218.486 309.574,219.152 308,220.5C 307.536,219.906 307.369,219.239 307.5,218.5C 307.5,209.5 307.5,200.5 307.5,191.5 Z"/></g>
<g><path style="opacity:1" fill="#4379ee" d="M 327.5,191.5 C 335.507,191.334 343.507,191.5 351.5,192C 354.941,194.087 356.608,197.087 356.5,201C 352.929,226.595 348.762,252.095 344,277.5C 342.833,280 341,281.833 338.5,283C 335.183,283.498 331.85,283.665 328.5,283.5C 328.167,268.833 327.833,254.167 327.5,239.5C 340.973,239.915 345.806,233.581 342,220.5C 337.537,217.966 333.037,217.966 328.5,220.5C 327.828,211.006 327.494,201.339 327.5,191.5 Z"/></g>
<g><path style="opacity:1" fill="#fbf2fa" d="M 219.5,237.5 C 220.832,230.177 222.165,222.844 223.5,215.5C 224.451,214.081 224.784,212.415 224.5,210.5C 225.5,210.5 226.5,210.5 227.5,210.5C 226.256,218.571 224.59,226.571 222.5,234.5C 222.728,236.397 223.728,237.73 225.5,238.5C 223.194,239.771 221.194,239.438 219.5,237.5 Z"/></g>
<g><path style="opacity:1" fill="#fdf6fb" d="M 203.5,212.5 C 208.875,212.172 214.208,212.505 219.5,213.5C 215.204,214.328 210.871,214.828 206.5,215C 205.39,218.049 204.723,221.216 204.5,224.5C 208.167,224.5 211.833,224.5 215.5,224.5C 215.715,226.179 215.048,227.179 213.5,227.5C 209.671,226.931 206.337,227.598 203.5,229.5C 202.215,232.589 201.549,235.922 201.5,239.5C 200.5,239.5 199.5,239.5 198.5,239.5C 199.957,230.462 201.624,221.462 203.5,212.5 Z"/></g>
<g><path style="opacity:1" fill="#ee6dbf" d="M 203.5,191.5 C 203.5,198.5 203.5,205.5 203.5,212.5C 201.624,221.462 199.957,230.462 198.5,239.5C 199.5,239.5 200.5,239.5 201.5,239.5C 201.549,235.922 202.215,232.589 203.5,229.5C 203.83,245.675 203.496,261.675 202.5,277.5C 197.524,251.051 193.358,224.384 190,197.5C 192.91,192.137 197.41,190.137 203.5,191.5 Z"/></g>
<g><path style="opacity:1" fill="#f8f0fa" d="M 239.5,218.5 C 242.862,218.07 245.695,219.07 248,221.5C 248.71,220.027 249.876,219.36 251.5,219.5C 250.783,225.252 249.616,230.919 248,236.5C 247.764,238.119 246.931,239.119 245.5,239.5C 244.778,239.082 244.278,238.416 244,237.5C 238.717,240.698 234.217,240.032 230.5,235.5C 230.5,233.167 230.5,230.833 230.5,228.5C 232.049,223.947 235.049,220.614 239.5,218.5 Z"/></g>
<g><path style="opacity:1" fill="#f6f2fb" d="M 259.5,218.5 C 260.931,218.881 261.764,219.881 262,221.5C 266.432,217.257 270.432,217.59 274,222.5C 275.894,219.156 278.727,217.822 282.5,218.5C 284.571,219.572 285.905,221.239 286.5,223.5C 284.853,228.715 283.853,234.049 283.5,239.5C 282.5,239.5 281.5,239.5 280.5,239.5C 279.957,239.44 279.624,239.107 279.5,238.5C 281.549,233.019 282.549,227.352 282.5,221.5C 279.03,220.875 276.196,221.875 274,224.5C 272.217,228.298 271.384,232.298 271.5,236.5C 270.596,237.209 270.263,238.209 270.5,239.5C 269.5,239.5 268.5,239.5 267.5,239.5C 268.282,234.478 269.282,229.478 270.5,224.5C 270.288,222.112 268.955,221.112 266.5,221.5C 264.626,221.39 263.126,222.056 262,223.5C 259.807,228.628 258.307,233.962 257.5,239.5C 256.448,239.649 255.448,239.483 254.5,239C 255.908,232.012 257.575,225.178 259.5,218.5 Z"/></g>
<g><path style="opacity:1" fill="#eeecfb" d="M 292.5,239.5 C 291.5,239.5 290.5,239.5 289.5,239.5C 290.639,233.426 291.972,227.426 293.5,221.5C 293.821,219.952 294.821,219.285 296.5,219.5C 295.767,226.41 294.433,233.076 292.5,239.5 Z"/></g>
<g><path style="opacity:1" fill="#edeefc" d="M 307.5,218.5 C 307.369,219.239 307.536,219.906 308,220.5C 309.574,219.152 311.407,218.486 313.5,218.5C 317.983,218.652 319.983,220.986 319.5,225.5C 318.773,229.515 317.94,233.515 317,237.5C 316.275,239.158 315.108,239.658 313.5,239C 315.111,233.612 315.945,228.112 316,222.5C 312.509,220.772 309.675,221.438 307.5,224.5C 305.17,229.114 303.836,234.114 303.5,239.5C 302.5,239.5 301.5,239.5 300.5,239.5C 301.125,232.748 302.292,226.081 304,219.5C 305.011,218.663 306.178,218.33 307.5,218.5 Z"/></g>
<g><path style="opacity:1" fill="#f1f4fd" d="M 327.5,239.5 C 323.374,233.047 323.707,226.713 328.5,220.5C 333.037,217.966 337.537,217.966 342,220.5C 345.806,233.581 340.973,239.915 327.5,239.5 Z"/></g>
<g><path style="opacity:1" fill="#9e72d5" d="M 271.5,236.5 C 271.5,252.167 271.5,267.833 271.5,283.5C 266.833,283.5 262.167,283.5 257.5,283.5C 256.727,268.993 256.727,254.326 257.5,239.5C 258.307,233.962 259.807,228.628 262,223.5C 263.126,222.056 264.626,221.39 266.5,221.5C 268.955,221.112 270.288,222.112 270.5,224.5C 269.282,229.478 268.282,234.478 267.5,239.5C 268.5,239.5 269.5,239.5 270.5,239.5C 270.263,238.209 270.596,237.209 271.5,236.5 Z"/></g>
<g><path style="opacity:1" fill="#4f7bed" d="M 332.5,221.5 C 337.156,220.34 339.823,222.007 340.5,226.5C 340.876,232.448 338.209,236.115 332.5,237.5C 328.8,236.944 327.133,234.778 327.5,231C 327.761,226.973 329.427,223.807 332.5,221.5 Z"/></g>
<g><path style="opacity:1" fill="#be73ce" d="M 238.5,221.5 C 243.827,220.175 246.494,222.175 246.5,227.5C 246.427,232.906 243.761,236.239 238.5,237.5C 235.106,236.716 233.773,234.549 234.5,231C 234.339,227.16 235.672,223.994 238.5,221.5 Z"/></g>
<g><path style="opacity:1" fill="#9173d9" d="M 280.5,239.5 C 281.312,254.29 281.645,268.957 281.5,283.5C 278.167,283.5 274.833,283.5 271.5,283.5C 271.5,267.833 271.5,252.167 271.5,236.5C 271.384,232.298 272.217,228.298 274,224.5C 276.196,221.875 279.03,220.875 282.5,221.5C 282.549,227.352 281.549,233.019 279.5,238.5C 279.624,239.107 279.957,239.44 280.5,239.5 Z"/></g>
<g><path style="opacity:1" fill="#7275e1" d="M 292.5,191.5 C 297.5,191.5 302.5,191.5 307.5,191.5C 307.5,200.5 307.5,209.5 307.5,218.5C 306.178,218.33 305.011,218.663 304,219.5C 302.292,226.081 301.125,232.748 300.5,239.5C 301.5,239.5 302.5,239.5 303.5,239.5C 303.836,234.114 305.17,229.114 307.5,224.5C 307.5,244.167 307.5,263.833 307.5,283.5C 302.5,283.5 297.5,283.5 292.5,283.5C 292.5,268.833 292.5,254.167 292.5,239.5C 294.433,233.076 295.767,226.41 296.5,219.5C 294.821,219.285 293.821,219.952 293.5,221.5C 292.506,211.681 292.173,201.681 292.5,191.5 Z"/></g>
<g><path style="opacity:1" fill="#f0effb" d="M 295.5,210.5 C 296.5,210.5 297.5,210.5 298.5,210.5C 298.5,211.833 298.5,213.167 298.5,214.5C 297.167,214.5 295.833,214.5 294.5,214.5C 294.433,213.041 294.766,211.708 295.5,210.5 Z"/></g>
<g><path style="opacity:1" fill="#df6cc2" d="M 213.5,227.5 C 213.833,246.167 214.167,264.833 214.5,283.5C 208.792,284.646 204.792,282.646 202.5,277.5C 203.496,261.675 203.83,245.675 203.5,229.5C 206.337,227.598 209.671,226.931 213.5,227.5 Z"/></g>
<g><path style="opacity:1" fill="#5e7cea" d="M 202.5,293.5 C 201.821,295.588 201.488,297.588 201.5,299.5C 194.406,299.59 189.573,296.256 187,289.5C 180.225,250.518 173.558,211.518 167,172.5C 166.5,170.667 165.333,169.5 163.5,169C 156.5,168.667 149.5,168.333 142.5,168C 141.167,166 141.167,164 142.5,162C 149.5,161.333 156.5,161.333 163.5,162C 168.235,163.068 171.402,165.901 173,170.5C 180.098,209.086 186.764,247.753 193,286.5C 194.32,291.317 197.486,293.651 202.5,293.5 Z"/></g>
<g><path style="opacity:1" fill="#be6fcc" d="M 230.5,235.5 C 234.217,240.032 238.717,240.698 244,237.5C 244.278,238.416 244.778,239.082 245.5,239.5C 246.404,254.285 246.404,268.952 245.5,283.5C 240.5,283.5 235.5,283.5 230.5,283.5C 229.596,267.619 229.596,251.619 230.5,235.5 Z"/></g>
<g><path style="opacity:1" fill="#7a74df" d="M 202.5,293.5 C 210.5,293.5 218.5,293.5 226.5,293.5C 226.833,295.5 227.167,297.5 227.5,299.5C 218.833,299.5 210.167,299.5 201.5,299.5C 201.488,297.588 201.821,295.588 202.5,293.5 Z"/></g>
<g><path style="opacity:1" fill="#9571d7" d="M 226.5,293.5 C 236.5,293.5 246.5,293.5 256.5,293.5C 256.5,295.5 256.5,297.5 256.5,299.5C 246.833,299.5 237.167,299.5 227.5,299.5C 227.167,297.5 226.833,295.5 226.5,293.5 Z"/></g>
<g><path style="opacity:1" fill="#b16fcf" d="M 256.5,293.5 C 265.833,293.5 275.167,293.5 284.5,293.5C 284.5,295.5 284.5,297.5 284.5,299.5C 275.167,299.5 265.833,299.5 256.5,299.5C 256.5,297.5 256.5,295.5 256.5,293.5 Z"/></g>
<g><path style="opacity:1" fill="#cb6dc8" d="M 284.5,293.5 C 293.167,293.5 301.833,293.5 310.5,293.5C 310.167,295.5 309.833,297.5 309.5,299.5C 301.167,299.5 292.833,299.5 284.5,299.5C 284.5,297.5 284.5,295.5 284.5,293.5 Z"/></g>
<g><path style="opacity:1" fill="#e76bc0" d="M 310.5,293.5 C 322.171,293.333 333.838,293.5 345.5,294C 346.86,295.938 346.527,297.604 344.5,299C 332.838,299.5 321.171,299.667 309.5,299.5C 309.833,297.5 310.167,295.5 310.5,293.5 Z"/></g>
<g><path style="opacity:1" fill="#567aea" d="M 230.5,314.5 C 221.983,314.826 213.65,314.493 205.5,313.5C 211.699,305.78 219.032,304.613 227.5,310C 229.141,311.129 230.141,312.629 230.5,314.5 Z"/></g>
<g><path style="opacity:1" fill="#6079e8" d="M 337.5,316.5 C 334.038,317.482 330.371,317.815 326.5,317.5C 324.5,316.167 322.5,316.167 320.5,317.5C 316.629,317.815 312.962,317.482 309.5,316.5C 315.782,305.504 324.115,303.671 334.5,311C 335.758,312.741 336.758,314.574 337.5,316.5 Z"/></g>
<g><path style="opacity:1" fill="#7d75df" d="M 205.5,313.5 C 213.65,314.493 221.983,314.826 230.5,314.5C 231.674,315.514 232.34,316.847 232.5,318.5C 232.5,320.5 232.5,322.5 232.5,324.5C 229.167,324.5 225.833,324.5 222.5,324.5C 223.935,320.052 222.268,317.385 217.5,316.5C 214.363,317.301 212.696,319.301 212.5,322.5C 209.167,322.5 205.833,322.5 202.5,322.5C 202.132,318.956 203.132,315.956 205.5,313.5 Z"/></g>
<g><path style="opacity:1" fill="#f7f5fc" d="M 222.5,324.5 C 218.18,328.921 214.847,328.254 212.5,322.5C 212.696,319.301 214.363,317.301 217.5,316.5C 222.268,317.385 223.935,320.052 222.5,324.5 Z"/></g>
<g><path style="opacity:1" fill="#faf9fd" d="M 326.5,317.5 C 328.168,319.479 328.834,321.812 328.5,324.5C 325.214,328.482 321.88,328.482 318.5,324.5C 318.166,321.812 318.832,319.479 320.5,317.5C 322.5,316.167 324.5,316.167 326.5,317.5 Z"/></g>
<g><path style="opacity:1" fill="#9772d7" d="M 309.5,316.5 C 312.962,317.482 316.629,317.815 320.5,317.5C 318.832,319.479 318.166,321.812 318.5,324.5C 315.375,325.479 312.042,325.813 308.5,325.5C 308.19,322.287 308.523,319.287 309.5,316.5 Z"/></g>
<g><path style="opacity:1" fill="#9873d7" d="M 337.5,316.5 C 338.477,319.287 338.81,322.287 338.5,325.5C 334.958,325.813 331.625,325.479 328.5,324.5C 328.834,321.812 328.168,319.479 326.5,317.5C 330.371,317.815 334.038,317.482 337.5,316.5 Z"/></g>
<g><path style="opacity:1" fill="#b671cf" d="M 318.5,324.5 C 321.88,328.482 325.214,328.482 328.5,324.5C 331.625,325.479 334.958,325.813 338.5,325.5C 338.443,326.609 338.11,327.609 337.5,328.5C 328.167,328.5 318.833,328.5 309.5,328.5C 309.443,327.391 309.11,326.391 308.5,325.5C 312.042,325.813 315.375,325.479 318.5,324.5 Z"/></g>
<g><path style="opacity:1" fill="#b671cf" d="M 232.5,318.5 C 233.791,322.177 233.458,325.844 231.5,329.5C 222.5,329.5 213.5,329.5 204.5,329.5C 203.434,327.299 202.767,324.965 202.5,322.5C 205.833,322.5 209.167,322.5 212.5,322.5C 214.847,328.254 218.18,328.921 222.5,324.5C 225.833,324.5 229.167,324.5 232.5,324.5C 232.5,322.5 232.5,320.5 232.5,318.5 Z"/></g>
<g><path style="opacity:1" fill="#ce6fc8" d="M 309.5,328.5 C 318.833,328.5 328.167,328.5 337.5,328.5C 336.876,330.754 335.543,332.421 333.5,333.5C 326.833,332.167 320.167,332.167 313.5,333.5C 311.457,332.421 310.124,330.754 309.5,328.5 Z"/></g>
<g><path style="opacity:1" fill="#db6fc5" d="M 204.5,329.5 C 213.5,329.5 222.5,329.5 231.5,329.5C 226.308,337.359 219.308,339.526 210.5,336C 207.614,334.615 205.614,332.449 204.5,329.5 Z"/></g>
<g><path style="opacity:1" fill="#e972c3" d="M 333.5,333.5 C 330.908,336.456 327.574,337.789 323.5,337.5C 319.426,337.789 316.092,336.456 313.5,333.5C 320.167,332.167 326.833,332.167 333.5,333.5 Z"/></g>
</svg>
